<svg xmlns="http://www.w3.org/2000/svg" width="512" height="512" fill="none">
  <clipPath id="a">
    <rect width="470" height="470" x="21" y="21" rx="32" />
  </clipPath>
  <clipPath id="b">
    <circle cx="255.5" cy="447.5" r="172.5" />
    <circle cx="461.5" cy="456.5" r="151.5" />
    <circle cx="42.5" cy="515.5" r="143.5" />
  </clipPath>
  <g clip-path="url(#a)">
    <rect width="470" height="470" x="21" y="21" fill="#8B3CE5" rx="32" />
    <g clip-path="url(#b)">
      <path fill="#EDB85D" d="M-29 203h615v414H-29z" />
      <path fill="#F19158" d="M-144 177h599L274 555h-418V177Z" />
    </g>
  </g>
  <path fill="#fff" fill-rule="evenodd"
    d="M374.749 118.937a38.486 38.486 0 0 1 19.66-1.179c6.542 1.319 12.536 4.311 17.275 8.624 4.74 4.314 8.029 9.77 9.48 15.727 1.452 5.958 1.006 12.168-1.285 17.903l-77.657 211.941c-1.889 5.208-5.214 9.888-9.658 13.591-4.443 3.703-9.856 6.306-15.72 7.56a38.061 38.061 0 0 1-17.759-.321c-5.79-1.505-11.051-4.353-15.268-8.266l-41.674-37.771-43.761 20.617a11.747 11.747 0 0 1-5.44 1.102 11.626 11.626 0 0 1-5.325-1.499c-1.602-.913-2.915-2.191-3.808-3.707a9.177 9.177 0 0 1-1.288-4.938l1.803-62.997 153.075-101.242a12.89 12.89 0 0 0 3.599-3.545 11.687 11.687 0 0 0 1.836-4.529 11.29 11.29 0 0 0-.207-4.824 11.878 11.878 0 0 0-2.219-4.384 13.182 13.182 0 0 0-3.893-3.278 14.46 14.46 0 0 0-4.973-1.672 14.905 14.905 0 0 0-5.298.189 14.23 14.23 0 0 0-4.815 2.02l-155.66 102.964-37.59-34.229c-4.051-3.69-7.038-8.235-8.694-13.23a28.93 28.93 0 0 1-.801-15.4c1.137-5.592 3.887-10.808 7.969-15.112 4.082-4.305 9.348-7.543 15.258-9.382h.065l232.752-70.753.021.02Z"
    clip-rule="evenodd" />
</svg>